# AST/ASF file generated using VICON BodyLanguage
# -----------------------------------------------
:version 1.10
:name VICON
:units
  mass 1.0
  length 0.45
  angle deg
:documentation
   .ast/.asf automatically generated from VICON data using
   VICON BodyBuilder and BodyLanguage model FoxedUp or BRILLIANT.MOD
:root
   order TX TY TZ RX RY RZ
   axis XYZ
   position 0 0 0  
   orientation 0 0 0 
:bonedata
  begin
     id 1 
     name lhipjoint
     direction 0.543289 -0.788407 0.288535 
     length 2.57127 
     axis 0 0 0  XYZ
  end
  begin
     id 2 
     name lfemur
     direction 0.34202 -0.939693 0  
     length 8.47298  
     axis 0 0 20  XYZ
    dof rx ry rz
    limits (-160.0 20.0)
           (-70.0 70.0)
           (-60.0 70.0)
  end
  begin
     id 3 
     name ltibia
     direction 0.34202 -0.939693 0   
     length 8.13367   
     axis 0 0 20   XYZ
    dof rx
    limits (-10.0 170.0)
  end
  begin
     id 4 
     name lfoot
     direction 0.114037 -0.313314 0.942778   
     length 2.67113   
     axis -90 7.62852e-016 20   XYZ
    dof rx rz
    limits (-45.0 90.0)
           (-70.0 20.0)
  end
  begin
     id 5 
     name ltoes
     direction 1.536e-011 -4.21847e-011 1   
     length 1.32217   
     axis -90 7.62852e-016 20   XYZ
    dof rx
    limits (-90.0 20.0)
  end
  begin
     id 6 
     name rhipjoint
     direction -0.571293 -0.770752 0.282074   
     length 2.63017  
     axis 0 0 0  XYZ 
  end
  begin
     id 7 
     name rfemur
     direction -0.34202 -0.939693 0   
     length 8.60885   
     axis 0 0 -20   XYZ
    dof rx ry rz
    limits (-160.0 20.0)
           (-70.0 70.0)
           (-70.0 60.0)
  end
  begin
     id 8 
     name rtibia
     direction -0.34202 -0.939693 0   
     length 8.07673   
     axis 0 0 -20   XYZ
    dof rx
    limits (-10.0 170.0)
 end
 begin
     id 9 
     name rfoot
     direction -0.121336 -0.333368 0.934956   
     length 2.81602  
     axis -90 -7.62852e-016 -20   XYZ
    dof rx rz
    limits (-45.0 90.0)
           (-20.0 70.0)
  end
  begin
     id 10 
     name rtoes
     direction -1.53491e-011 -4.21808e-011 1   
     length 1.38905   
     axis -90 -7.62852e-016 -20   XYZ
    dof rx
    limits (-90.0 20.0)
  end
  begin
     id 11 
     name lowerback
     direction 0.0136776 0.999869 -0.00861835   
     length 2.14087   
     axis 0 0 0   XYZ
    dof rx ry rz
    limits (-20.0 45.0)
           (-30.0 30.0)
           (-30.0 30.0)
  end
  begin
     id 12 
     name upperback
     direction -0.00789158 0.999804 0.0181308   
     length 2.14151   
     axis 0 0 0   XYZ
    dof rx ry rz
    limits (-20.0 45.0)
           (-30.0 30.0)
           (-30.0 30.0)
  end
  begin
     id 13 
     name thorax
     direction -0.0135231 0.999666 0.0220247   
     length 2.13644   
     axis 0 0 0   XYZ
    dof rx ry rz
    limits (-20.0 45.0)
           (-30.0 30.0)
           (-30.0 30.0)
  end
  begin
     id 14 
     name lowerneck
     direction -0.0392259 0.997317 0.0618018   
     length 1.65045   
     axis 0 0 0   XYZ
    dof rx ry rz
    limits (-20.0 45.0)
           (-30.0 30.0)
           (-30.0 30.0)
  end
  begin
     id 15 
     name upperneck
     direction 0.0765547 0.994276 -0.0745319   
     length 1.66045   
     axis 0 0 0   XYZ
    dof rx ry rz
    limits (-20.0 45.0)
           (-30.0 30.0)
           (-30.0 30.0)
  end
  begin
     id 16
     name head
     direction 0.0241564 0.999031 -0.036785  
     length 1.66594  
     axis 0 0 0   XYZ
    dof rx ry rz
    limits (-20.0 45.0)
           (-30.0 30.0)
           (-30.0 30.0)
  end
  begin
     id 17 
     name lclavicle
     direction 0.967398 0.249018 0.0461573  
     length 3.75176  
     axis 0 0 0   XYZ
    dof ry rz
    limits (-20.0 10.0)
           (0.0 20.0)
  end
  begin
     id 18 
     name lhumerus
     direction 1 -4.48963e-011 -3.05005e-027   
     length 5.93342   
     axis 180 -30 -90   XYZ
    dof rx ry rz
    limits (-60.0 90.0)
           (-90.0 90.0)
           (-90.0 90.0)
  end
  begin
     id 19
     name lradius
     direction 1 -4.48957e-011 1.07006e-026   
     length 3.94763   
     axis 180 -30 -90   XYZ
    dof rx
    limits (-10.0 170.0)
  end
  begin
     id 20
     name lwrist
     direction 1 -4.48978e-011 1.92422e-026   
     length 1.97382   
     axis -1.18182e-014 90 90   XYZ
    dof ry
    limits (-180.0 0.0)
 end
  begin
     id 21 
     name lhand
     direction 1 -4.48931e-011 3.84844e-026   
     length 0.560187   
     axis -2.45563e-014 90 90   XYZ
    dof rx rz
    limits (-90.0 90.0)
           (-45.0 45.0)
  end
  begin
     id 22 
     name lfingers
     direction 1 -4.48952e-011 7.69687e-026   
     length 0.451637   
     axis -4.91126e-014 90 90   XYZ
    dof rx
    limits (0.0 90.0)
  end
  begin
     id 23
     name lthumb
     direction 0.707107 -6.34901e-011 0.707107   
     length 0.648463   
     axis -90 45 2.85299e-015   XYZ
    dof rx rz
    limits (-45.0 45.0)
           (-45.0 45.0)
  end
  begin
     id 24 
     name rclavicle
     direction -0.965946 0.258716 0.00371831   
     length 3.63667  
     axis 0 0 0   XYZ 
    dof ry rz
    limits (-10.0 20.0)
           (-20.0 0.0)
  end
  begin
     id 25 
     name rhumerus
     direction -1 -4.48966e-011 -1.78361e-028  
     length 6.28647   
     axis 180 30 90   XYZ
    dof rx ry rz
    limits (-90.0 60.0)
           (-90.0 90.0)
           (-90.0 90.0)
  end
  begin
     id 26 
     name rradius
     direction -1 -4.48961e-011 1.05248e-026   
     length 3.81645   
     axis 180 30 90   XYZ
    dof rx
    limits (-10.0 170.0)
  end
  begin
     id 27 
     name rwrist
     direction -1 -4.48979e-011 1.92422e-026   
     length 1.90822   
     axis -1.18182e-014 -90 -90   XYZ
    dof ry
    limits (-180.0 0.0)
  end
  begin
     id 28
     name rhand
     direction -1 -4.48937e-011 3.84844e-026   
     length 0.646185   
     axis -2.45563e-014 -90 -90   XYZ
    dof rx rz
    limits (-90.0 90.0)
           (-45.0 45.0)
  end
  begin
     id 29
     name rfingers
     direction -1 -4.48953e-011 7.69687e-026   
     length 0.520971   
     axis -4.91126e-014 -90 -90   XYZ
    dof rx
    limits (0.0 90.0)
  end
  begin
     id 30
     name rthumb
     direction -0.707107 -6.3494e-011 0.707107   
     length 0.748013   
     axis -90 -45 -2.85299e-015   XYZ
    dof rx rz
    limits (-45.0 45.0)
           (-45.0 45.0)
  end
:hierarchy
  begin
    root lhipjoint rhipjoint lowerback
    lhipjoint lfemur
    lfemur ltibia
    ltibia lfoot
    lfoot ltoes
    rhipjoint rfemur
    rfemur rtibia
    rtibia rfoot
    rfoot rtoes
    lowerback upperback
    upperback thorax
    thorax lowerneck lclavicle rclavicle
    lowerneck upperneck
    upperneck head
    lclavicle lhumerus
    lhumerus lradius
    lradius lwrist
    lwrist lhand lthumb
    lhand lfingers
    rclavicle rhumerus
    rhumerus rradius
    rradius rwrist
    rwrist rhand rthumb
    rhand rfingers
  end

#!OML:ASF H:\HAZMAT1\Patient Classification 1\Patient 3\Session 1\dancer.ASF
:FULLY-SPECIFIED
:DEGREES
46
upperback -0.714867 -18.932199 -0.926421
rfoot -7.923390 0.529835
lradius 19.116199
lthumb 24.616400 43.322102
rradius 87.326599
lwrist -0.234825
rhand 14.787500 -23.043200
rhumerus -36.134499 -2.629050 -3.610270
lowerneck -6.083200 8.242560 8.127780
lhand -1.016540 14.885000
ltibia 35.142700
head 2.105960 5.282110 -0.881099
rwrist -49.277100
lfingers 7.125020
rtoes -12.317300
lowerback -1.493190 -14.238200 -1.815430
rfingers 7.125020
lclavicle -0.000000 -0.000000
upperneck 1.992360 10.397200 0.224493
rfemur -51.279701 24.499201 -1.134670
thorax 0.312448 -9.453350 -0.368044
rclavicle -0.000000 -0.000000
rtibia 51.996601
lfoot -22.443701 4.962850
lhumerus 63.866798 12.894500 71.965698
rthumb 39.651600 -48.373402
root 18.716700 16.730600 -5.292880 178.914001 23.534500 -182.574997
ltoes -17.478600
lfemur 21.968800 -4.225540 -14.472600
47
upperback -1.155890 -18.424299 -0.115613
rfoot -13.612900 -3.493110
lradius 18.034401
lthumb 25.985201 42.955399
rradius 35.771000
lwrist 5.849530
rhand 6.582300 -20.920601
rhumerus -24.247101 3.077440 -11.586400
lowerneck -6.104570 0.733786 0.515258
lhand 0.412263 14.712000
ltibia 23.729000
head 0.182848 0.824682 2.557500
rwrist -8.018650
lfingers 7.125020
rtoes -7.831030
lowerback -0.024478 -13.823400 -1.019470
rfingers 7.125020
lclavicle 0.000000 0.000000
upperneck -2.570620 1.282680 8.286140
rfemur -52.136002 6.883730 3.123460
thorax -0.913992 -9.191290 0.512652
rclavicle 0.000000 0.000000
rtibia 55.763599
lfoot -21.230600 25.314199
lhumerus 53.326599 0.758197 89.510696
rthumb 31.878000 -48.151001
root 20.272100 17.234900 -5.855820 188.994003 3.869170 -182.664001
ltoes 4.239170
lfemur 11.702100 -4.664150 -6.319170
48
upperback -1.649640 -12.905900 1.989480
rfoot -21.098700 -13.701200
lradius 12.189200
lthumb 16.514400 59.766701
rradius 8.836280
lwrist -17.181601
rhand -4.537930 -23.097099
rhumerus -30.510500 13.835300 -63.490002
lowerneck 0.188918 -11.753000 -7.343890
lhand -9.448790 30.449499
ltibia 27.739401
head 0.661474 -7.893450 3.821790
rwrist 53.186001
lfingers 7.125020
rtoes 2.924410
lowerback 1.203390 -9.771460 5.193580
rfingers 7.125020
lclavicle 0.000000 -0.000000
upperneck -2.136360 -15.717200 8.722460
rfemur -42.779900 -2.178480 6.704820
thorax -3.039390 -6.528150 -0.194834
rclavicle 0.000000 -0.000000
rtibia 53.340599
lfoot -17.541700 29.394501
lhumerus -7.607800 63.493900 80.873596
rthumb 21.237301 -51.953701
root 21.627600 17.657400 -5.503620 191.358002 -34.823399 -180.112000
ltoes 13.921300
lfemur -17.277201 -7.303440 8.180930
49
upperback -1.657340 -4.467200 6.822610
rfoot -27.446501 -13.212100
lradius 21.070700
lthumb -1.575840 82.058403
rradius 34.465401
lwrist -4.929120
rhand -20.449400 -16.442400
rhumerus 53.875999 31.795000 -35.859100
lowerneck -3.690810 -2.446400 -1.076190
lhand -28.196699 52.084400
ltibia 30.935699
head 8.395640 -2.789770 -2.053370
rwrist 6.814910
lfingers 7.125020
rtoes -1.586630
lowerback 1.686430 -3.355400 6.435610
rfingers 7.125020
lclavicle -0.000000 -0.000000
upperneck 25.412901 -3.447410 -5.588970
rfemur -22.396700 -3.217430 7.492650
thorax -2.596300 -2.419840 3.658560
rclavicle -0.000000 -0.000000
rtibia 49.686298
lfoot -35.698898 41.842400
lhumerus -63.597099 83.808098 -46.622601
rthumb 5.905960 -46.340099
root 21.852100 17.647699 -5.205670 177.610992 -64.747803 -174.738007
ltoes 21.128599
lfemur -25.709900 -5.154350 8.782900
50
upperback -3.470320 -3.283940 4.710130
rfoot -33.892799 -21.733101
lradius 45.843102
lthumb -19.377501 73.930199
rradius 48.859299
lwrist -15.786900
rhand -44.893101 -22.791500
rhumerus 74.895203 -41.003101 -27.896200
lowerneck -7.071360 5.061320 5.139370
lhand -46.657001 44.875702
ltibia 39.756401
head 9.615150 2.806910 0.797573
rwrist 11.175500
lfingers 7.125020
rtoes -4.077890
lowerback -1.196660 -2.467600 10.122400
rfingers 7.125020
lclavicle 0.000000 -0.000000
upperneck 26.575500 4.655120 3.551070
rfemur -0.478657 -8.313030 11.876500
thorax -3.238980 -1.914990 -0.680663
rclavicle 0.000000 -0.000000
rtibia 33.400200
lfoot -32.197800 41.815201
lhumerus 75.526604 48.337200 42.712002
rthumb -17.680799 -52.007702
root 20.956400 17.697001 -4.374540 21.247900 -74.076103 -16.188101
ltoes 25.270500
lfemur -52.426899 30.707600 -22.340401
51
upperback -4.439400 -1.540080 1.871310
rfoot -29.535400 -32.675598
lradius 68.691299
lthumb -23.542200 67.690697
rradius 89.267502
lwrist -26.823500
rhand -47.340801 -23.552500
rhumerus 98.512703 -64.110100 -73.499397
lowerneck -8.026510 8.470390 9.589020
lhand -50.993301 39.111500
ltibia 53.629002
head 6.955800 5.331310 0.179591
rwrist 10.785800
lfingers 7.125020
rtoes -19.418501
lowerback -1.236690 -1.219670 9.731620
rfingers 7.125020
lclavicle 0.000000 -0.000000
upperneck 17.216900 9.456400 2.828260
rfemur 10.335700 -6.084800 12.723800
thorax -4.157400 -1.118710 -3.446790
rclavicle 0.000000 -0.000000
rtibia 22.822399
lfoot -20.906401 34.852001
lhumerus 67.627502 19.506901 10.114900
rthumb -20.034800 -52.539600
root 20.129700 17.269699 -2.608850 17.139299 -55.948101 -6.692000
ltoes 28.569099
lfemur -65.899200 26.601900 -37.366699
52
upperback -3.265500 2.535820 4.689980
rfoot 6.628980 -23.486900
lradius 76.704002
lthumb -23.803801 69.122902
rradius 106.502998
lwrist -38.051601
rhand -55.632999 11.355400
rhumerus 73.630898 -49.728199 -90.316902
lowerneck -8.655250 10.053600 9.845490
lhand -51.265999 40.577499
ltibia 55.570900
head 4.425740 6.291480 -3.106770
rwrist 4.032860
lfingers 7.125020
rtoes -22.311001
lowerback -0.383791 1.741800 12.321800
rfingers 7.125020
lclavicle -0.000000 0.000000
upperneck 6.180680 13.014400 -8.115980
rfemur 8.593340 -12.802400 12.382200
thorax -2.910980 0.971817 -2.017930
rclavicle -0.000000 0.000000
rtibia 38.495701
lfoot -22.925200 23.619600
lhumerus 40.278500 -12.654900 -2.747550
rthumb -27.985399 -16.578300
root 19.444599 17.293400 -0.480029 16.314199 -28.354099 -1.432500
ltoes 24.511700
lfemur -57.299000 7.608900 -39.642700
53
upperback -3.275650 5.381780 7.544240
rfoot 27.932100 -8.985280
lradius 77.776802
lthumb -24.733200 71.122902
rradius 102.661003
lwrist -39.201401
rhand -55.709202 -9.991250
rhumerus 27.660801 -34.034901 -87.479500
lowerneck -9.980960 6.020210 6.598320
lhand -52.235500 42.701801
ltibia 50.994202
head 2.336030 3.590720 -3.216000
rwrist 4.969800
lfingers 7.125020
rtoes 24.483999
lowerback 1.000590 3.507210 13.917500
rfingers 7.125020
lclavicle 0.000000 0.000000
upperneck -0.111007 7.537170 -7.441070
rfemur -7.659530 -33.715599 18.046600
thorax -3.543670 2.395540 0.018955
rclavicle 0.000000 0.000000
rtibia 62.287998
lfoot -21.583799 1.943410
lhumerus 5.021970 -22.155399 7.541010
rthumb -28.058300 -37.913101
root 17.864000 17.881100 1.154650 15.276200 12.235600 0.904436
ltoes 23.365499
lfemur -40.592400 -0.277046 -37.606602
54
upperback -4.135100 4.916560 8.442360
rfoot 30.726999 -10.246000
lradius 69.504997
lthumb -24.191500 68.685204
rradius 98.230400
lwrist -35.494400
rhand -51.759102 -30.931999
rhumerus 13.184000 -14.271300 -85.278801
lowerneck -10.012400 -0.708064 2.340640
lhand -51.670399 40.190899
ltibia 50.271301
head 0.765183 -0.598874 -1.785660
rwrist 10.905800
lfingers 7.125020
rtoes 32.186798
lowerback 0.758353 2.879670 12.425100
rfingers 7.125020
lclavicle 0.000000 -0.000000
upperneck -2.854110 -1.085520 -4.275040
rfemur -21.530600 -40.995300 18.936001
thorax -4.592500 2.286650 1.748580
rclavicle 0.000000 -0.000000
rtibia 72.510803
lfoot -27.226400 7.308480
lhumerus -14.591500 -10.134600 6.751370
rthumb -24.276501 -59.414902
root 16.034901 18.275400 3.257530 13.304200 57.826199 -0.612943
ltoes 17.142200
lfemur -30.634399 -1.674010 -31.933901
55
upperback -3.064970 4.400180 6.935200
rfoot 19.692699 -29.152300
lradius 47.030499
lthumb -22.236000 63.402699
rradius 91.734802
lwrist -26.531900
rhand -35.859001 -28.642099
rhumerus 10.516600 14.447500 -81.808502
lowerneck -6.897520 -7.693430 -3.017500
lhand -49.632198 34.661800
ltibia 48.984100
head 0.936398 -4.982250 -0.237616
rwrist 5.912630
lfingers 7.125020
rtoes 36.243099
lowerback 1.739650 2.541820 10.081700
rfingers 7.125020
lclavicle -0.000000 -0.000000
upperneck -0.873740 -9.960010 -1.440630
rfemur -31.008900 -48.978901 13.220800
thorax -4.035640 2.144520 1.386870
rclavicle -0.000000 -0.000000
rtibia 79.279602
lfoot -27.293800 2.759280
lhumerus -22.022400 4.120680 5.266920
rthumb -8.973750 -58.431198
root 14.865700 18.412600 5.786270 173.095993 85.765099 157.384003
ltoes 5.618200
lfemur -33.640800 -9.472620 -21.254200
56
upperback -1.590980 5.518700 4.738460
rfoot -0.454190 -27.590099
lradius 26.554899
lthumb -12.564300 58.873001
rradius 79.434402
lwrist -10.904100
rhand -14.356500 -18.301100
rhumerus 19.985100 54.084499 -72.859200
lowerneck -2.681800 -12.910500 -7.619260
lhand -39.581501 29.270800
ltibia 45.311298
head 3.055090 -8.519570 1.985690
rwrist -7.454150
lfingers 7.125020
rtoes 22.409300
lowerback 2.576450 3.611120 8.806670
rfingers 7.125020
lclavicle 0.000000 -0.000000
upperneck 4.485040 -17.087999 4.457260
rfemur -36.240601 -48.202599 4.438640
thorax -2.766120 2.716060 -0.252927
rclavicle 0.000000 -0.000000
rtibia 61.095001
lfoot -22.284000 -3.018920
lhumerus -32.160801 25.247801 -7.632610
rthumb 11.785400 -47.949600
root 14.929900 18.470501 8.733920 190.554993 72.121803 172.880005
ltoes -1.043230
lfemur -38.501499 -13.732800 -8.281670
